<?xml version="1.0" encoding="UTF-8" standalone="no"?>
<svg
   xml:space="preserve"
   width="24"
   height="24"
   viewBox="0 0 24 24"
   version="1.1"
   id="svg9"
   sodipodi:docname="big-shot-v2.svg"
   inkscape:version="1.4.3 (0d15f75042, 2025-12-25)"
   xmlns:inkscape="http://www.inkscape.org/namespaces/inkscape"
   xmlns:sodipodi="http://sodipodi.sourceforge.net/DTD/sodipodi-0.dtd"
   xmlns:xlink="http://www.w3.org/1999/xlink"
   xmlns="http://www.w3.org/2000/svg"
   xmlns:svg="http://www.w3.org/2000/svg"><sodipodi:namedview
     id="namedview9"
     pagecolor="#ffffff"
     bordercolor="#000000"
     borderopacity="0.25"
     inkscape:showpageshadow="2"
     inkscape:pageopacity="0.0"
     inkscape:pagecheckerboard="0"
     inkscape:deskcolor="#d1d1d1"
     inkscape:zoom="34.265216"
     inkscape:cx="8.2007363"
     inkscape:cy="10.929451"
     inkscape:window-width="3440"
     inkscape:window-height="1372"
     inkscape:window-x="0"
     inkscape:window-y="0"
     inkscape:window-maximized="1"
     inkscape:current-layer="svg9" /><defs
     id="defs6"><linearGradient
       id="a"
       x1=".05"
       x2="1"
       y2="1"
       gradientTransform="matrix(22 0 0 22 -56.75 -22.125)"
       gradientUnits="userSpaceOnUse"><stop
         offset="0.205"
         stop-color="#7e0000"
         style="stop-color:#32333c;stop-opacity:1;"
         id="stop1" /><stop
         offset="0.205"
         stop-color="#ae0003"
         style="stop-color:#fe4f34;stop-opacity:1;"
         id="stop3" /><stop
         offset="1"
         stop-color="#7e0002"
         style="stop-color:#ff0117;stop-opacity:1;"
         id="stop4" /></linearGradient><linearGradient
       id="d"
       x1="123.3"
       x2="8.261"
       y1="120.17"
       y2="13.466"
       gradientTransform="translate(53.824 2.949)scale(.18333)"
       gradientUnits="userSpaceOnUse"><stop
         offset="0"
         stop-color="#0257a9"
         id="stop5" /><stop
         offset="1"
         stop-color="#4c92d6"
         id="stop6" /></linearGradient><linearGradient
       xlink:href="#a"
       id="e"
       x1=".05"
       x2="1"
       y2="1"
       gradientTransform="scale(22)"
       gradientUnits="userSpaceOnUse" /></defs><rect
     width="22"
     height="22"
     x="1"
     y="1"
     fill="url(#d)"
     stroke="gray"
     stroke-opacity=".2"
     opacity=".9"
     rx="6.6"
     style="fill:url(#e);-inkscape-stroke:hairline"
     vector-effect="non-scaling-stroke"
     id="rect6" /><path
     id="path6"
     style="fill:#ffffff;fill-opacity:0.3;stroke-width:0.0225132"
     d="M 5.6699219 9.6699219 L 5.6699219 22.330078 L 18.330078 22.330078 L 18.330078 9.671875 L 5.9003906 9.671875 L 5.6699219 9.6699219 z M 5.9003906 9.9003906 L 9.8144531 9.9003906 L 9.8144531 10.488281 A 5.9283579 5.9283579 0 0 0 6.4902344 13.8125 L 5.9003906 13.8125 L 5.9003906 9.9003906 z M 10.042969 9.9003906 L 13.957031 9.9003906 L 13.957031 10.402344 A 5.9283579 5.9283579 0 0 0 12.003906 10.070312 A 5.9283579 5.9283579 0 0 0 10.042969 10.402344 L 10.042969 9.9003906 z M 14.1875 9.9003906 L 18.099609 9.9003906 L 18.099609 13.8125 L 17.509766 13.8125 A 5.9283579 5.9283579 0 0 0 14.1875 10.490234 L 14.1875 9.9003906 z M 12.003906 11.056641 A 4.9458804 4.9458804 0 0 1 13.957031 11.458984 L 13.957031 13.8125 L 10.042969 13.8125 L 10.042969 11.458984 A 4.9458804 4.9458804 0 0 1 12.003906 11.056641 z M 9.8144531 11.566406 L 9.8144531 13.8125 L 7.5644531 13.8125 A 4.9458804 4.9458804 0 0 1 9.8144531 11.566406 z M 14.1875 11.566406 A 4.9458804 4.9458804 0 0 1 16.435547 13.8125 L 14.1875 13.8125 L 14.1875 11.566406 z M 5.9003906 14.042969 L 6.4042969 14.042969 A 5.9283579 5.9283579 0 0 0 6.0742188 16 A 5.9283579 5.9283579 0 0 0 6.4042969 17.957031 L 5.9003906 17.957031 L 5.9003906 14.042969 z M 7.4589844 14.042969 L 9.8144531 14.042969 L 9.8144531 17.957031 L 7.4550781 17.957031 A 4.9458804 4.9458804 0 0 1 7.0527344 16 A 4.9458804 4.9458804 0 0 1 7.4589844 14.042969 z M 10.042969 14.042969 L 13.957031 14.042969 L 13.957031 17.957031 L 10.042969 17.957031 L 10.042969 14.042969 z M 14.1875 14.042969 L 16.541016 14.042969 A 4.9458804 4.9458804 0 0 1 16.947266 16 A 4.9458804 4.9458804 0 0 1 16.544922 17.957031 L 14.1875 17.957031 L 14.1875 14.042969 z M 17.595703 14.042969 L 18.099609 14.042969 L 18.099609 17.957031 L 17.595703 17.957031 A 5.9283579 5.9283579 0 0 0 17.925781 16 A 5.9283579 5.9283579 0 0 0 17.595703 14.042969 z M 5.9003906 18.1875 L 6.4902344 18.1875 A 5.9283579 5.9283579 0 0 0 9.8144531 21.511719 L 9.8144531 22.099609 L 5.9003906 22.099609 L 5.9003906 18.1875 z M 7.5625 18.1875 L 9.8144531 18.1875 L 9.8144531 20.439453 A 4.9458804 4.9458804 0 0 1 7.5625 18.1875 z M 10.042969 18.1875 L 13.957031 18.1875 L 13.957031 20.546875 A 4.9458804 4.9458804 0 0 1 12.003906 20.949219 A 4.9458804 4.9458804 0 0 1 10.042969 20.546875 L 10.042969 18.1875 z M 14.1875 18.1875 L 16.4375 18.1875 A 4.9458804 4.9458804 0 0 1 14.1875 20.439453 L 14.1875 18.1875 z M 17.509766 18.1875 L 18.099609 18.1875 L 18.099609 22.099609 L 14.1875 22.099609 L 14.1875 21.509766 A 5.9283579 5.9283579 0 0 0 17.509766 18.1875 z M 10.042969 21.597656 A 5.9283579 5.9283579 0 0 0 12.003906 21.929688 A 5.9283579 5.9283579 0 0 0 13.957031 21.597656 L 13.957031 22.099609 L 10.042969 22.099609 L 10.042969 21.597656 z " /><path
     id="path8"
     style="fill:#ffffff;fill-opacity:1;stroke-width:0.0230264"
     d="M 14.351562 4.0644531 C 14.268896 4.0644531 14.181844 4.0718906 14.089844 4.0878906 C 12.608844 4.3348906 12.669922 6.0605469 12.669922 6.0605469 C 12.669922 6.0605469 12.669812 6.8239375 13.382812 7.2109375 C 13.976812 7.5509375 14.317 7.1810469 14.375 7.1230469 C 14.433 7.0650469 15.639312 5.5588281 15.445312 8.4238281 C 15.445312 8.4238281 15.869484 7.9613281 15.896484 6.8613281 C 15.923484 5.7613281 15.214844 5.6933594 15.214844 5.6933594 C 15.214844 5.6933594 14.90225 5.6141563 14.28125 6.2851562 C 13.77825 6.8301562 13.653 6.9118281 13.625 6.9238281 L 13.621094 6.9257812 L 13.619141 6.9257812 C 13.619141 6.9257812 13.443828 7.0492813 13.423828 6.7382812 C 13.403828 6.4282813 13.333203 5.4855625 14.283203 4.9765625 C 15.228203 4.4665625 15.689453 5.7148437 15.689453 5.7148438 C 15.689453 5.7148438 15.585563 4.0644531 14.351562 4.0644531 z M 11.677734 4.7792969 A 1 1 0 0 0 11.503906 4.8007812 C 11.139906 4.8777812 10.892172 5.1605937 10.951172 5.4335938 C 11.009172 5.7055938 11.350844 5.8622031 11.714844 5.7832031 C 12.076844 5.7052031 12.323625 5.4223906 12.265625 5.1503906 C 12.216625 4.9283906 11.974734 4.77825 11.677734 4.78125 L 11.677734 4.7792969 z M 8.5546875 4.9941406 C 8.5546875 4.9941406 8.1295156 5.4566875 8.1035156 6.5546875 C 8.0765156 7.6546875 8.7832031 7.7207031 8.7832031 7.7207031 C 8.7832031 7.7207031 9.0957969 7.7989063 9.7167969 7.1289062 C 10.223453 6.5815625 10.348861 6.4983178 10.376953 6.4882812 L 10.380859 6.4882812 C 10.380859 6.4882812 10.555172 6.3647813 10.576172 6.6757812 C 10.596172 6.9857812 10.664797 7.9305 9.7167969 8.4375 C 8.7697969 8.9445 8.3085937 7.6992187 8.3085938 7.6992188 C 8.3085938 7.6992188 8.4262031 9.5731719 9.9082031 9.3261719 C 11.388203 9.0791719 11.328125 7.3535156 11.328125 7.3535156 C 11.328125 7.3535156 11.329234 6.589125 10.615234 6.203125 C 10.022234 5.863125 9.6820469 6.2320156 9.6230469 6.2910156 C 9.5630469 6.3500156 8.3626875 7.8551406 8.5546875 4.9941406 z M 11.824219 5.9101562 A 0.514 0.514 0 0 0 11.373047 6.5800781 C 11.373047 6.5800781 11.67325 7.7695938 13.28125 7.8085938 C 13.28125 7.8075937 12.353 7.1448125 12.375 6.3828125 A 0.514 0.514 0 0 0 11.824219 5.9101562 z M 5.6699219 9.6699219 L 5.6699219 11.228516 L 6.1328125 11.228516 L 6.1328125 10.132812 L 7.2265625 10.132812 L 7.2265625 9.6699219 L 5.6699219 9.6699219 z M 16.773438 9.6699219 L 16.773438 10.132812 L 17.867188 10.132812 L 17.867188 11.228516 L 18.330078 11.228516 L 18.330078 9.6699219 L 16.773438 9.6699219 z M 12 12.878906 A 3.1202731 3.1202731 0 0 0 8.8789062 16 A 3.1202731 3.1202731 0 0 0 12 19.121094 A 3.1202731 3.1202731 0 0 0 15.121094 16 A 3.1202731 3.1202731 0 0 0 12 12.878906 z M 5.6699219 20.773438 L 5.6699219 22.330078 L 7.2265625 22.330078 L 7.2265625 21.867188 L 6.1328125 21.867188 L 6.1328125 20.773438 L 5.6699219 20.773438 z M 17.867188 20.773438 L 17.867188 21.867188 L 16.773438 21.867188 L 16.773438 22.330078 L 18.330078 22.330078 L 18.330078 20.773438 L 17.867188 20.773438 z " /></svg>
