<svg xmlns="http://www.w3.org/2000/svg" width="16" height="16" viewBox="0 0 16 16">
  <!-- Pixelate: grid of uniform squares representing mosaic blocks -->
  <rect x="2"  y="2"  width="2.5" height="2.5" fill="#ffffff"/>
  <rect x="5"  y="2"  width="2.5" height="2.5" fill="#ffffff" opacity="0.5"/>
  <rect x="8"  y="2"  width="2.5" height="2.5" fill="#ffffff"/>
  <rect x="11" y="2"  width="2.5" height="2.5" fill="#ffffff" opacity="0.5"/>
  <rect x="2"  y="5"  width="2.5" height="2.5" fill="#ffffff" opacity="0.5"/>
  <rect x="5"  y="5"  width="2.5" height="2.5" fill="#ffffff"/>
  <rect x="8"  y="5"  width="2.5" height="2.5" fill="#ffffff" opacity="0.5"/>
  <rect x="11" y="5"  width="2.5" height="2.5" fill="#ffffff"/>
  <rect x="2"  y="8"  width="2.5" height="2.5" fill="#ffffff"/>
  <rect x="5"  y="8"  width="2.5" height="2.5" fill="#ffffff" opacity="0.5"/>
  <rect x="8"  y="8"  width="2.5" height="2.5" fill="#ffffff"/>
  <rect x="11" y="8"  width="2.5" height="2.5" fill="#ffffff" opacity="0.5"/>
  <rect x="2"  y="11" width="2.5" height="2.5" fill="#ffffff" opacity="0.5"/>
  <rect x="5"  y="11" width="2.5" height="2.5" fill="#ffffff"/>
  <rect x="8"  y="11" width="2.5" height="2.5" fill="#ffffff" opacity="0.5"/>
  <rect x="11" y="11" width="2.5" height="2.5" fill="#ffffff"/>
</svg>
